<?xml version="1.0" encoding="utf-8"?>
<!-- Generator: Adobe Illustrator 27.1.0, SVG Export Plug-In . SVG Version: 6.00 Build 0)  -->
<svg version="1.1" id="Capa_1" xmlns="http://www.w3.org/2000/svg" xmlns:xlink="http://www.w3.org/1999/xlink" x="0px" y="0px"
	 viewBox="0 0 32 32" style="enable-background:new 0 0 32 32;" xml:space="preserve">
<style type="text/css">
	.st0{fill:#29336C;}
	.st1{fill:#FFFFFF;}
</style>
<rect class="st0" width="32" height="32"/>
<path class="st1" d="M23.62,4.72c0-0.07,0-0.13,0-0.2c-0.05-0.02-0.1-0.03-0.15-0.05c-0.03-0.01-0.07-0.03-0.1-0.04
	c0-0.02,0-0.04,0-0.06c0-0.22-0.04-0.44,0.01-0.64c0.07-0.3,0.02-0.56-0.11-0.82c-0.02-0.13-0.03-0.26-0.05-0.39
	c-0.08-0.05-0.16-0.1-0.24-0.15c-0.29-0.03-0.57-0.06-0.89-0.09c0.08-0.1,0.18-0.22,0.23-0.28c-0.11-0.26-0.21-0.53-0.36-0.76
	c0-0.01,0-0.03,0-0.05c-0.1-0.05-0.2-0.12-0.3-0.13C21.36,1.03,21.06,1.02,20.77,1c-0.44,0.09-0.88,0.16-1.31,0.27
	c-0.27,0.07-0.53,0.18-0.8,0.27c-0.08,0.02-0.16,0.03-0.24,0.05c-0.4,0.13-0.81,0.25-1.2,0.41c-0.54,0.21-1.07,0.44-1.6,0.67
	c-0.05,0.03-0.1,0.06-0.15,0.1c-0.18,0.11-0.36,0.23-0.54,0.34l0,0c-0.13,0.07-0.26,0.13-0.39,0.2c-0.07,0.05-0.13,0.11-0.2,0.14
	c-0.41,0.19-0.82,0.36-1.23,0.55c-0.05,0.03-0.1,0.07-0.15,0.1c-0.2,0.15-0.39,0.29-0.59,0.44c0,0.01,0,0.03,0,0.04l0,0
	c-0.18,0.02-0.36,0.03-0.54,0.05c-0.07,0.02-0.13,0.03-0.2,0.05c0.06,0.15-0.05,0.14-0.14,0.15c-0.2,0.01-0.4,0.03-0.6,0.04
	c0.28,0,0.55,0.01,0.83,0.01c0.07,0.02,0.13,0.03,0.2,0.05c0.1,0.06,0.21,0.08,0.31,0.08c-0.1-0.01-0.2-0.03-0.31-0.08
	c-0.07-0.02-0.13-0.03-0.2-0.05c0,0.02,0,0.03,0,0.05c-0.26,0-0.52,0-0.79,0.01c0.26,0.03,0.52,0.06,0.85,0.09
	c-0.23,0.24-0.39,0.41-0.55,0.59c-0.08,0.12-0.16,0.23-0.24,0.35c0.26-0.26,0.53-0.52,0.79-0.78c-0.26,0.26-0.53,0.52-0.79,0.78
	C10.99,6,10.97,6.04,10.95,6.09c-0.21,0.23-0.42,0.46-0.63,0.69c-0.06,0.05-0.13,0.08-0.17,0.14C10,7.1,9.87,7.28,9.73,7.46
	c-0.05,0.03-0.1,0.06-0.16,0.09c-0.1,0.12-0.21,0.24-0.3,0.37C9.09,8.19,8.92,8.47,8.75,8.73C8.62,9.03,8.5,9.32,8.38,9.61
	C8.32,9.76,8.26,9.91,8.2,10.05c-0.09,0.14-0.21,0.27-0.27,0.43c-0.17,0.44-0.31,0.89-0.46,1.34c-0.35,0.63-0.47,1.44-0.7,2.13
	c-0.23,0.67-0.36,1.38-0.5,2.08c-0.13,0.66-0.34,1.43-0.25,2.09c0.09,0.69,0.07,1.38,0.07,2.07l0,0c0,0.02,0,0.03,0,0.05
	c0,0.01,0,0.03,0,0.04c-0.26,0.12-0.28,0.15-0.1,0.3c0.12,0.05,0.23,0.1,0.35,0.15c0.01,0.16,0.03,0.33,0.04,0.49
	c0.05,0.3,0.09,0.59,0.14,0.89c0.07,0.32,0.14,0.64,0.21,0.97c0.08,0.43,0.16,0.85,0.24,1.28c0.1,0.21,0.2,0.42,0.31,0.63
	c0.17,0.3,0.35,0.59,0.53,0.89c0.02,0,0.03,0,0.05,0c0.15,0.16,0.3,0.31,0.45,0.47c0.18,0.21,0.36,0.43,0.54,0.65
	c0.13,0.1,0.26,0.2,0.39,0.3l0.01-0.01c0.07,0.13,0.13,0.27,0.22,0.38c0.14,0.18,0.31,0.34,0.47,0.5c0.18,0.18,0.36,0.36,0.54,0.54
	c0.18,0.16,0.36,0.32,0.54,0.49c0.11,0.1,0.22,0.2,0.32,0.31c0.22,0.22,0.43,0.45,0.75,0.53c0.06,0.03,0.13,0.07,0.19,0.1
	c0.02,0,0.04,0,0.06-0.01c-0.22-0.19-0.47-0.36-0.7-0.54c0.23,0.19,0.48,0.35,0.7,0.54c0.26,0.16,0.52,0.33,0.78,0.49
	c0.05,0.02,0.09,0.04,0.14,0.06c0,0.01,0.01,0.03,0.01,0.04c0.1,0.08,0.2,0.23,0.31,0.23c0.61,0.04,1.23,0.04,1.85,0.06
	c0.18-0.02,0.36-0.03,0.54-0.05c0.28-0.14,0.58-0.15,0.87-0.3c0.38-0.21,0.84-0.28,1.14-0.63c1.18-0.9,2.38-1.8,3.49-2.78
	c0.22-0.21,0.45-0.41,0.64-0.64c0.34-0.4,0.65-0.82,0.98-1.23c0.11-0.2,0.23-0.39,0.34-0.59c0.03,0,0.06,0,0.09,0
	c0.03-0.05,0.06-0.1,0.1-0.15c0.16-0.26,0.32-0.51,0.46-0.78c0.1-0.18,0.16-0.39,0.23-0.58c0-0.03,0-0.07,0-0.1v0
	c0.02-0.08,0.03-0.17,0.05-0.25c-0.03-0.39-0.06-0.78-0.09-1.17c0.03,0.39,0.06,0.78,0.09,1.17c0.11-0.53,0.11-1.06-0.2-1.52
	c-0.09-0.13-0.18-0.36-0.44-0.29c-0.05-0.01-0.1-0.03-0.14-0.04c-0.14-0.01-0.27-0.03-0.41-0.04c-0.22-0.02-0.42,0-0.53,0.23
	c-0.01,0.11-0.03,0.23-0.04,0.34c0.06,0.05,0.12,0.11,0.19,0.16c0.07,0.01,0.14,0.03,0.2,0.04c0.03-0.02,0.06-0.04,0.09-0.06l0,0
	c-0.03,0.02-0.06,0.04-0.09,0.06c0.23,0.01,0.47-0.14,0.68,0.05c0,0.08,0.02,0.17,0,0.24c-0.08,0.34-0.27,0.65-0.2,1.02
	c-0.11,0.23-0.23,0.46-0.34,0.69c-0.13,0.24-0.27,0.48-0.4,0.73c0,0,0,0,0,0c-0.03,0.02-0.06,0.03-0.08,0.06
	c-0.16,0.22-0.31,0.45-0.46,0.67c-0.13,0.12-0.26,0.24-0.39,0.35c-0.1,0.11-0.2,0.23-0.29,0.34c-0.15,0.15-0.29,0.29-0.44,0.44
	c-0.17,0.16-0.33,0.32-0.5,0.49c0.17-0.16,0.33-0.32,0.5-0.49c-0.61,0.04-0.84,1.05-1.5,0.78c-0.54-0.22-0.75-0.96-1.31-1.17
	c0,0,0,0,0,0c-0.23-0.08-0.45-0.16-0.68-0.24c-0.03-0.02-0.07-0.03-0.1-0.05c-0.19-0.06-0.39-0.09-0.58-0.14
	c0.19,0.05,0.39,0.09,0.58,0.14c-0.39-0.17-0.79-0.31-1.18-0.5c-0.24-0.15-0.49-0.3-0.73-0.45c-0.15-0.13-0.3-0.26-0.45-0.39
	c-0.41-0.29-0.82-0.59-1.23-0.88c-0.41-0.42-0.82-0.84-1.23-1.26c-0.15-0.22-0.32-0.43-0.41-0.68c0.13-0.01,0.26,0.02,0.37,0.09
	c-0.08-0.3-0.35-0.33-0.6-0.44c-0.03,0.02-0.05,0.03-0.08,0.05c0.05,0.15,0.09,0.29,0.14,0.44c-0.05-0.15-0.09-0.29-0.14-0.44
	c0.03-0.02,0.05-0.03,0.08-0.05c-0.08-0.19-0.26-0.45-0.09-0.61c0.17-0.15,0.96-0.03,1.17-0.03c0-0.01,0-0.03,0-0.04
	c-0.18,0-0.37-0.01-0.55-0.01c0-0.01,0.01-0.03,0.01-0.04c-0.26-0.01-0.53-0.02-0.79-0.05c-0.05,0-0.09-0.07-0.14-0.1
	c-0.08,0-0.16,0-0.25,0c-0.05-0.03-0.1-0.07-0.15-0.1c0-0.02,0-0.03,0-0.05c0.05,0,0.09,0,0.14,0.01c0-0.02,0-0.03,0-0.05
	c-0.07-0.05-0.13-0.1-0.2-0.15c0,0,0,0,0,0c-0.04-0.23-0.18-0.32,0.14-0.33c-0.01-0.06-0.04-0.11-0.07-0.16c-0.14,0-0.25,0-0.36,0
	c-0.24-0.41-0.63-0.88-0.46-1.38c0.13-0.38,0.44-0.91,0.7-1.22c0.02-0.06,0.04-0.13,0.05-0.19h0c0.02-0.02,0.03-0.03,0.05-0.05
	c0.45-0.76,0.85-1.52,1.42-2.2c0.5-0.85,1.11-1.58,1.67-2.4c0.12-0.2,0.26-0.35,0.43-0.51c0.21-0.21,0.23-0.33,0.35-0.54
	c0.2-0.34,0.51-0.73,0.78-1.01c0.84-0.88,1.51-1.85,2.44-2.65c0.03,0.02,0.08,0.07,0.13,0.11c0,0,0,0,0,0
	c0.02,0.02,0.03,0.04,0.05,0.06l0,0c0,0.01,0,0.03,0,0.04c0.18,0.23,0.37,0.45,0.55,0.68c0.1,0.1,0.19,0.2,0.29,0.3
	c0.02,0.03,0.04,0.06,0.06,0.09c0.02,0.03,0.03,0.06,0.05,0.09c0.08,0.12,0.16,0.24,0.24,0.35c-0.08-0.12-0.16-0.24-0.24-0.35
	c0.35,0.92-0.03,2-0.35,2.9c-0.02,0.1-0.03,0.2-0.05,0.29c-0.14,0.43-0.55,1.19-0.2,1.61c0.39,0.48,0.8-0.14,1.08-0.44
	c0.08-0.08,0.17-0.16,0.25-0.24c0.38-0.38,0.63-0.66,0.56-1.2c0.03-0.01,0.05-0.02,0.08-0.03c0.2,0.17,0.4,0.34,0.58,0.5
	c-0.04,0.24-0.38,0.31-0.24,0.58c0.11-0.18,0.22-0.37,0.33-0.55c0.02,0.01,0.04,0.01,0.07,0.02c0,0.15,0,0.3,0,0.44
	c0.02,0,0.03,0,0.05,0c-0.02-0.21,0.06-0.4-0.03-0.63c-0.07-0.17,0.15-0.15,0.27-0.15c0.05,0.04,0.1,0.09,0.15,0.13
	c0.02,0.02,0.04,0.04,0.06,0.06c0.11,0.02,0.22,0.06,0.33,0.07c-0.11-0.01-0.22-0.05-0.33-0.07c0.03,0.03,0.06,0.07,0.09,0.1
	c0.18,0.04,0.41,0.16,0.54,0.1c0.49-0.23,0.67-0.26,0.64-0.93v0c0.02,0,0.03,0,0.05,0c0-0.05,0-0.1,0-0.14
	c-0.04-0.74-0.1-1.47-0.13-2.21c-0.02-0.38,0-0.77-0.01-1.15c0-0.26,0.13-0.77,0-0.99c-0.16-0.39-0.05-0.41,0.1-0.73
	c0.15-0.3,0.09-0.53,0.05-0.88c0.07-0.08,0.13-0.16,0.2-0.25c0-0.02,0-0.03,0-0.05c0.33-0.05,0.65-0.12,0.98-0.13
	c0.49-0.02,0.99,0,1.48,0c0.03,0,0.06,0,0.09-0.01c0-0.01,0-0.03,0-0.04C25.29,4.69,24.46,4.71,23.62,4.72z M6.14,17.83
	C6.14,17.83,6.14,17.83,6.14,17.83c0,0,0,0.01,0,0.02C6.14,17.84,6.14,17.84,6.14,17.83z M6.34,17L6.34,17L6.34,17L6.34,17z
	 M7.02,13.97c0.1-0.28,0.2-0.55,0.3-0.83C7.22,13.41,7.12,13.69,7.02,13.97c-0.02,0.03-0.03,0.07-0.05,0.1
	C6.99,14.03,7.01,14,7.02,13.97z M10.37,11.01c-0.13,0.17-0.25,0.35-0.36,0.53C10.13,11.35,10.25,11.18,10.37,11.01z M8.94,14.9
	c0.01,0.04,0.01,0.09,0.02,0.12C8.95,14.99,8.94,14.94,8.94,14.9c-0.02-0.14-0.03-0.3-0.02-0.45C8.91,14.61,8.91,14.76,8.94,14.9z
	 M8.96,15.13C8.97,15.12,8.97,15.12,8.96,15.13c0.01-0.01,0.01-0.02,0-0.02c0.01-0.08,0.01-0.18-0.03-0.3
	c0.04-0.09,0.08-0.18,0.12-0.27c-0.17-0.32,0.12-0.65,0.23-0.98c0.06-0.17,0.14-0.29,0.21-0.45c0.09-0.22,0.05-0.49,0.18-0.7
	c0.05-0.1,0.09-0.2,0.14-0.3c-0.06,0.06-0.14,0.12-0.19,0.19c0.05-0.07,0.13-0.13,0.19-0.19c0-0.01,0.01-0.03,0.01-0.05
	c0.11-0.07,0.23-0.14,0.42-0.25c0.01,0.25,0.02,0.42,0.02,0.6c-0.25,0.22-0.25,0.89-0.29,1.21C9.92,14,9.73,14.39,9.69,14.75
	c-0.02,0.18,0.09,0.3,0.08,0.47c-0.01,0.17-0.09,0.35-0.13,0.52C9.56,16.13,9.56,16.69,9.3,17c-0.27-0.23-0.47-0.82-0.51-1.17
	C8.76,15.48,8.92,15.34,8.96,15.13z M9.72,19.8c0.01,0.05,0,0.1-0.03,0.14c0,0.02,0,0.03-0.01,0.05c0-0.02,0-0.03,0.01-0.05
	C9.71,19.9,9.72,19.85,9.72,19.8c-0.02-0.1-0.1-0.23-0.2-0.35C9.62,19.57,9.7,19.7,9.72,19.8z M9.52,17.56
	c0.02-0.04,0.04-0.08,0.06-0.12v0C9.56,17.48,9.54,17.52,9.52,17.56z M9.78,20.57C9.78,20.57,9.78,20.57,9.78,20.57
	c-0.1-0.02-0.2-0.03-0.3-0.05C9.58,20.54,9.68,20.55,9.78,20.57z M9.82,20.18L9.82,20.18c0.01-0.04,0.02-0.1,0.04-0.17
	C9.84,20.08,9.83,20.14,9.82,20.18z M8.7,16.31c0-0.05,0-0.09-0.01-0.14c-0.01-0.25-0.02-0.49-0.03-0.74c0,0.25,0.02,0.49,0.03,0.74
	C8.69,16.22,8.69,16.27,8.7,16.31z M9.13,17.4L9.13,17.4c0-0.05,0-0.1,0-0.15C9.14,17.3,9.13,17.35,9.13,17.4z M7.87,25.56
	c-0.02,0-0.04,0-0.06,0C7.83,25.57,7.85,25.57,7.87,25.56C7.87,25.56,7.87,25.56,7.87,25.56z M8.84,21.21L8.84,21.21
	c0.01-0.1,0.02-0.19,0.03-0.29C8.86,21.02,8.85,21.12,8.84,21.21z M9.73,23.51C9.49,23.32,9.26,23.14,9,22.93
	C9.26,23.14,9.49,23.32,9.73,23.51L9.73,23.51z M11.2,24.74c-0.11-0.02-0.2-0.07-0.28-0.12C11,24.67,11.09,24.72,11.2,24.74
	c0.09,0.11,0.2,0.21,0.31,0.28C11.39,24.95,11.29,24.85,11.2,24.74z M12.72,25.96c0.25,0.11,0.49,0.23,0.74,0.34
	c0.14,0.06,0.28,0.11,0.42,0.17c-0.14-0.06-0.28-0.11-0.42-0.17C13.21,26.19,12.97,26.07,12.72,25.96z M13.9,26.36
	c0.23,0.09,0.45,0.23,0.68,0.33c0,0,0,0,0,0C14.35,26.59,14.13,26.46,13.9,26.36z M13.49,27.87c-0.1-0.05-0.18-0.1-0.23-0.15
	c-0.03-0.02-0.07-0.03-0.1-0.05c0.03,0.02,0.07,0.03,0.1,0.05C13.3,27.77,13.38,27.82,13.49,27.87c0.1,0.05,0.23,0.11,0.37,0.16
	C13.72,27.98,13.59,27.92,13.49,27.87z M15.62,30.91c-0.09,0-0.17,0-0.26-0.01c-0.27-0.02-0.53-0.05-0.8-0.07
	c0.27,0.02,0.53,0.05,0.8,0.07c0.03-0.02,0.07-0.03,0.1-0.05c-0.03,0.02-0.07,0.03-0.1,0.05C15.45,30.9,15.54,30.9,15.62,30.91
	C15.62,30.91,15.62,30.91,15.62,30.91z M19.79,28.41c-0.03,0-0.07,0-0.1,0c0,0,0,0,0,0C19.72,28.41,19.76,28.41,19.79,28.41
	c0.25-0.18,0.49-0.35,0.74-0.53C20.29,28.05,20.04,28.23,19.79,28.41c-0.47,0.39-0.93,0.77-1.39,1.16
	C18.86,29.18,19.33,28.79,19.79,28.41z M18.76,26.59c0.03,0.02,0.06,0.04,0.1,0.05c0.01,0.01,0.01,0.02,0.02,0.03
	c-0.01-0.01-0.02-0.02-0.02-0.02c0,0,0,0,0,0C18.82,26.63,18.79,26.61,18.76,26.59c-0.08-0.09-0.16-0.19-0.25-0.28
	C18.6,26.4,18.68,26.5,18.76,26.59z M18.44,27.3c-0.09,0.05-0.19,0.08-0.32,0.08h0C18.24,27.38,18.35,27.35,18.44,27.3z
	 M18.47,27.34c-0.03,0.03-0.07,0.06-0.1,0.09l0,0C18.4,27.4,18.43,27.37,18.47,27.34z M15.52,25.91c0.38,0.09,0.7,0.17,1.03,0.3
	C16.23,26.08,15.91,26,15.52,25.91c-0.09-0.1-0.18-0.2-0.29-0.31C15.34,25.71,15.43,25.81,15.52,25.91z M13.22,25.03
	c0.05,0.09,0.09,0.19,0.14,0.28C13.32,25.22,13.27,25.13,13.22,25.03c-0.02-0.1-0.05-0.2-0.08-0.29
	C13.18,24.84,13.2,24.93,13.22,25.03z M12.33,21.94c0.01,0.04,0.02,0.08,0.04,0.12C12.35,22.02,12.34,21.98,12.33,21.94
	C12.33,21.94,12.33,21.94,12.33,21.94z M11.05,21.7c0.07,0.15,0.13,0.29,0.2,0.44l0,0C11.18,22,11.11,21.85,11.05,21.7L11.05,21.7z
	 M10.5,21.27c0.01,0.01,0.01,0.02,0.01,0.03c0.05,0.11,0.07,0.23,0.14,0.32c0.17,0.21,0.36,0.41,0.54,0.62
	c0.18,0.23,0.36,0.45,0.54,0.68c0.02,0.03,0.04,0.07,0.05,0.1c0.05,0.32,0.33,0.48,0.48,0.73c0.25,0.34,0.49,0.68,0.74,1.03
	c0.03,0.04,0.06,0.07,0.09,0.11c0.05,0.15,0.06,0.32,0.14,0.44c0.13,0.19,0.3,0.36,0.45,0.53c0.08,0.08,0.17,0.16,0.25,0.23
	c0.08,0.03,0.16,0.07,0.24,0.1c0.05,0.01,0.1,0.01,0.15,0c-0.05,0.01-0.1,0.01-0.15,0c0.12,0.18,0.23,0.1,0.35,0
	c0.19-0.14,0.22-0.33,0.2-0.55c-0.01-0.07,0.02-0.15,0.04-0.23c0.33,0.04,0.47,0.34,0.69,0.52c0,0,0,0,0,0
	c0.11,0.05,0.23,0.11,0.34,0.16c0.25,0.06,0.49,0.11,0.74,0.17c-0.24-0.06-0.49-0.11-0.74-0.17c0.54,0.23,0.97,0.42,1.43,0.77
	c0.03,0.02,0.06,0.04,0.09,0.06c0.04,0.14,0.09,0.29,0.14,0.46c0.33-0.39,0.43-0.08,0.79,0.08c0.09,0.05,0.19,0.09,0.28,0.14
	c-0.11,0.06-0.23,0.12-0.33,0.19c0.02,0,0.04,0.01,0.07,0.01c0.13,0,0.22-0.02,0.28-0.05c-0.06,0.03-0.15,0.05-0.28,0.05
	c-0.01,0.01-0.01,0.03-0.01,0.04c0-0.01,0.01-0.03,0.01-0.04c-0.02,0-0.04-0.01-0.07-0.01c-0.24,0.02-0.49,0-0.72,0.06
	c-0.3,0.08-0.54,0.02-0.74-0.21c-0.17-0.15-0.34-0.29-0.51-0.44c-0.07-0.06-0.12-0.13-0.18-0.2l0,0c-0.08-0.05-0.16-0.1-0.25-0.15
	c-0.66-0.15-1.24-0.36-1.87-0.61c-0.6-0.24-1.27-0.34-1.62-0.91c-0.1-0.1-0.19-0.2-0.29-0.29c0,0.02,0,0.04-0.01,0.06v0
	c-0.05-0.03-0.09-0.07-0.14-0.09c-0.23-0.12-0.46-0.24-0.69-0.37c0,0,0,0,0,0c-0.15-0.13-0.3-0.25-0.45-0.38
	c-0.11-0.13-0.23-0.26-0.34-0.39c-0.28-0.27-0.65-0.53-0.69-0.95c-0.05-0.43,0.27-0.6-0.19-0.89c0.09-0.1,0.17-0.19,0.24-0.27
	c0,0,0,0,0,0c-0.01-0.08-0.02-0.16-0.03-0.25c-0.01-0.02-0.01-0.03-0.02-0.05c-0.01-0.03-0.03-0.07-0.04-0.1c0,0,0,0,0,0
	c-0.09-0.01-0.18-0.04-0.27-0.04c-0.2-0.01-0.35-0.07-0.37-0.3c0.02-0.39,0.22-0.44,0.59-0.4C10.06,20.71,10.2,20.98,10.5,21.27z
	 M10.41,12.11c-0.03-0.08-0.06-0.15-0.09-0.2C10.35,11.96,10.38,12.03,10.41,12.11L10.41,12.11z M10.42,12.21c0-0.03,0-0.06,0-0.1
	C10.41,12.14,10.41,12.18,10.42,12.21L10.42,12.21z M20.52,6.24c-0.01,0.08-0.03,0.17-0.04,0.26C20.5,6.4,20.51,6.32,20.52,6.24
	L20.52,6.24z M20.33,2.03C20.33,2.03,20.33,2.03,20.33,2.03c-0.06,0.02-0.19,0.06-0.32,0.11C20.13,2.09,20.27,2.05,20.33,2.03z
	 M19.64,4.92c-0.16,0-0.33,0-0.49,0l0,0C19.31,4.92,19.48,4.92,19.64,4.92z M18.31,1.73c0.26-0.07,0.53-0.15,0.79-0.22
	C18.84,1.58,18.58,1.66,18.31,1.73C18.31,1.73,18.31,1.73,18.31,1.73z M17.88,5.02c0.03,0,0.07-0.01,0.1-0.01
	c0.04-0.01,0.07-0.03,0.11-0.04c0.48,0,0.68-0.01,1.06,0.26c-0.13,0.15-0.3,0.3-0.43,0.46c-0.12,0.16,0.01,0.23-0.21,0.35
	c-0.03-0.01-0.07-0.03-0.1-0.04c-0.06-0.07-0.13-0.14-0.19-0.2C18.1,5.64,18,5.49,17.87,5.35C17.75,5.22,17.78,5.12,17.88,5.02z
	 M18.07,6.63c-0.03-0.06-0.06-0.13-0.09-0.19c0-0.03,0-0.06,0-0.09c0,0.03,0,0.06,0,0.09C18.01,6.49,18.03,6.56,18.07,6.63z
	 M18.17,5.85c0,0.09-0.02,0.14-0.05,0.16C18.15,5.99,18.17,5.94,18.17,5.85z M16.11,2.62c-0.15,0.1-0.29,0.2-0.44,0.3c0,0,0,0,0,0
	C15.81,2.81,15.96,2.72,16.11,2.62z M15.01,4.59c0.22-0.04,0.45-0.06,0.7-0.09c0.49,0.03,1.09-0.17,1.56-0.08
	c0.43,0.08,0.34,0.36,0.02,0.49c-0.37,0.16-1.28,0.26-1.66,0.22C15.44,5.12,14.46,4.7,15.01,4.59z M16.6,5.72
	c-0.11,0.07-0.23,0.11-0.35,0.17c0,0,0,0,0,0C16.37,5.84,16.49,5.79,16.6,5.72z M13.75,3.79c0.17-0.08,0.34-0.16,0.5-0.24
	C14.08,3.63,13.92,3.71,13.75,3.79c-0.03,0.03-0.07,0.07-0.1,0.1C13.68,3.85,13.72,3.82,13.75,3.79z M12.62,9.37
	c0.16-0.24,0.35-0.48,0.55-0.71C12.97,8.89,12.78,9.13,12.62,9.37c-0.09,0.06-0.16,0.11-0.22,0.17C12.46,9.48,12.53,9.42,12.62,9.37
	z M11.3,6.43c0.02-0.01,0.04-0.02,0.06-0.02C11.33,6.42,11.31,6.42,11.3,6.43L11.3,6.43z M11.24,15.14
	c-0.13,0.18-0.26,0.36-0.39,0.54C10.98,15.5,11.11,15.32,11.24,15.14c-0.01-0.05-0.01-0.09,0-0.12
	C11.24,15.06,11.24,15.1,11.24,15.14z M12.03,13.97c-0.17,0.32-0.36,0.61-0.57,0.89C11.68,14.58,11.87,14.29,12.03,13.97
	c0.07-0.07,0.13-0.13,0.2-0.2C12.17,13.84,12.1,13.91,12.03,13.97z M12.48,13.87c-0.01-0.05-0.02-0.11-0.03-0.18
	C12.46,13.77,12.47,13.82,12.48,13.87L12.48,13.87z M17.34,7.27c-0.02,0.01-0.04,0.02-0.06,0.03c-0.05,0.07-0.1,0.14-0.15,0.2
	c0,0,0,0,0,0c-0.22,0.2-0.45,0.39-0.64,0.61c-0.3,0.34-0.59,0.7-0.88,1.06c-0.03,0-0.07,0-0.1,0c-0.51,0.62-0.99,1.26-1.48,1.91
	c0.02,0,0.04,0,0.05,0c-0.02,0-0.04,0-0.05,0c-0.57,0.64-1.13,1.28-1.65,1.96c-0.2,0.27-0.33,0.56-0.52,0.83
	c-0.25,0.35-0.52,0.68-0.72,1.07c-0.12,0.16-0.25,0.33-0.41,0.54c-0.13-0.91,0.21-2.06,0.31-2.98c0.03-0.52,0.21-0.93,0.35-1.42
	c0.07-0.23,0.01-0.64,0.31-0.73c0.05,0.18,0.09,0.33,0.12,0.47c0.08-0.06,0.16-0.12,0.24-0.19c-0.08,0.02-0.17,0.04-0.25,0.06
	c0.07-0.26,0.02-0.21,0.19-0.28c0.02,0.07,0.04,0.14,0.07,0.22c0.05-0.05,0.09-0.49,0.13-0.6c0.11-0.27,0.21-0.37,0.41-0.57
	c0.02,0,0.03,0,0.05,0c0.94-0.97,1.98-1.76,2.95-2.69c0-0.02,0-0.04,0-0.05C15.41,6.89,15.21,7.05,15,7.22
	c0.21-0.16,0.41-0.33,0.62-0.49c0.15-0.18,0.3-0.36,0.45-0.53c0.2-0.06,0.4-0.1,0.59-0.19c0.17-0.08,0.29-0.07,0.39,0.09
	c0.03,0.01,0.07,0.03,0.1,0.04c-0.1-0.19-0.19-0.28-0.32-0.27c0.13,0,0.22,0.08,0.32,0.27c0.15,0.16,0.29,0.33,0.44,0.49
	c0.05,0.04,0.1,0.07,0.11,0.07C17.56,6.91,17.45,7.09,17.34,7.27c0.06-0.03,0.13-0.07,0.19-0.1C17.47,7.2,17.4,7.23,17.34,7.27z
	 M18.19,7.26c-0.1,0.04-0.2,0.12-0.3,0.24C17.99,7.38,18.09,7.3,18.19,7.26z M18.51,7.49c-0.04-0.11-0.08-0.18-0.13-0.23
	c0,0,0,0,0,0C18.43,7.31,18.47,7.38,18.51,7.49c0.26,0.29,0.52,0.58,0.78,0.87C19.04,8.07,18.77,7.78,18.51,7.49z M19.64,8.73
	c-0.05-0.04-0.07-0.09-0.09-0.15C19.57,8.64,19.6,8.69,19.64,8.73c0,0.02,0.01,0.03,0.01,0.05C19.65,8.76,19.65,8.75,19.64,8.73z
	 M19.6,6.53C19.6,6.53,19.6,6.53,19.6,6.53c0.03,0.21,0.08,0.42,0.11,0.63C19.68,6.95,19.63,6.74,19.6,6.53z M20.39,12.15
	c0.08-0.17,0.13-0.34,0.17-0.53c0-0.03,0.01-0.06,0.01-0.1c0,0.03-0.01,0.06-0.01,0.1C20.53,11.81,20.47,11.98,20.39,12.15z
	 M23.04,6.97C23.04,6.97,23.04,6.97,23.04,6.97c-0.02,0-0.04,0-0.06,0C23,6.97,23.02,6.97,23.04,6.97z M22,1.63
	c0.07,0.15,0.09,0.27,0.07,0.36C22.09,1.9,22.08,1.79,22,1.63c-0.01-0.06-0.02-0.12-0.03-0.18C21.99,1.51,22,1.57,22,1.63z
	 M21.41,5.36c0.09,0.11,0.18,0.23,0.29,0.35C21.59,5.59,21.5,5.47,21.41,5.36c-0.09-0.08-0.15-0.14-0.21-0.17
	C21.25,5.23,21.32,5.28,21.41,5.36z M21.75,11.72c-0.03-0.06-0.06-0.09-0.08-0.09C21.69,11.64,21.72,11.67,21.75,11.72
	C21.75,11.72,21.75,11.72,21.75,11.72z M22.19,10.99c-0.1-0.1-0.19-0.2-0.29-0.29c-0.05-0.08-0.09-0.19-0.11-0.3
	c0.02,0.11,0.06,0.22,0.11,0.3C22,10.79,22.09,10.89,22.19,10.99c0.05,0.06,0.11,0.13,0.16,0.19C22.3,11.11,22.24,11.05,22.19,10.99
	z M22.39,10.05c-0.02-0.05-0.03-0.11-0.05-0.19C22.36,9.94,22.38,10.01,22.39,10.05c0.02,0.11,0.03,0.23,0.05,0.34
	C22.43,10.28,22.41,10.17,22.39,10.05z M22.19,2.52c-0.01,0.01-0.02,0.01-0.03,0.02C22.17,2.53,22.18,2.52,22.19,2.52
	c0.1-0.02,0.19-0.04,0.26-0.05C22.38,2.48,22.29,2.5,22.19,2.52z M23.17,9.08C23.17,9.08,23.17,9.08,23.17,9.08
	c-0.03-0.76-0.06-1.51-0.08-2.27C23.12,7.57,23.15,8.32,23.17,9.08z"/>
</svg>
