<?xml version="1.0" encoding="utf-8"?>
<!-- Generator: Adobe Illustrator 25.0.1, SVG Export Plug-In . SVG Version: 6.00 Build 0)  -->
<svg version="1.1" id="Capa_1" xmlns="http://www.w3.org/2000/svg" xmlns:xlink="http://www.w3.org/1999/xlink" x="0px" y="0px"
	 viewBox="0 0 211 181.7" style="enable-background:new 0 0 211 181.7;" xml:space="preserve">
<style type="text/css">
	.st0{fill:#FEFEFE;}
	.st1{fill:#353535;}
	.st2{font-family:'Impact';}
	.st3{font-size:8.8219px;}
	.st4{font-size:16px;}
	.st5{font-size:14.3558px;}
	.st6{fill:#D02017;}
	.st7{font-size:23.4475px;}
</style>
<path class="st0" d="M0,0h211v117.1l-0.2-3.7l-0.8-10.1c-0.6-2.5-1.5-4.8-1.7-7.1c0-0.6-0.2-1.2-0.3-1.8c-0.4-1-0.6-1.9-0.7-2.5
	c-0.4-2.7-1.6-5-3.7-6.8c-1.4-1.2-2.6-1.3-4.3-2.1c-1.3-0.6-2.4-1.1-3.3-1.3c-6.9-1.5-13.9-2.3-20.9-2.6c-0.3,0-0.6-0.1-0.9-0.3
	c-0.8-0.5-1.6-0.7-2.5-0.3c-0.4,0.1-0.7,0.1-1-0.1c-1.4-0.8-2.6-0.6-3.6,0.8c-0.2,0.3-0.3,0.6-0.2,0.9c0,0.4-0.2,0.6-0.6,0.6
	c-0.7,0.1-1,0-1-0.3c1.6-2.3,3.2-4.6,4.6-7c2-3.2,6.4-5.3,9.3-7.6c0.5-0.4,0.4-0.6-0.2-0.7l-4.2-0.6c-0.8-0.1-1.3-0.8-1.2-1.6
	c0-0.1,0.1-0.3,0.1-0.4c0.4-0.8,0.8-1.8,1.6-2.4c7.3-5.6,14.7-11.4,22.1-17.3c0.2-0.1,0.2-0.3,0.1-0.5c-0.1-0.1-0.3-0.2-0.4-0.1
	l-20,8.3c-0.4,0.1-0.6,0-0.7-0.3c-0.3-1.2-0.1-2.3,0.6-3c8.8-9.6,15.5-18.3,19-30.6c0.1-0.4,0-0.6-0.4-0.6l-174.2,0
	c-0.4,0-0.5,0.2-0.4,0.5c1.1,6,1.9,12.9,5,18.4c2.7,4.8,5.5,9.5,8.5,14.1c0.9,1.4,1.5,2.6,1.8,3.5c0.4,1.3-0.1,1.8-1.4,1.3L20,48.5
	c-0.1-0.1-0.3,0-0.3,0.1c-0.1,0.1,0,0.2,0.1,0.3c5.5,5.4,11.1,10.9,16.8,16.3c4.2,4,7.7,6.6,10.4,7.8c3.1,1.4,5.4,2.4,6.8,3.2
	c0.2,0.1,0.3,0.4,0.2,0.6c-0.1,0.1-0.1,0.2-0.2,0.2L48,79.3c-10.5,0.2-21.3,0.4-32.2,0.6c-3.3,0.1-6.7,1.5-10.2,4.2
	c-0.3,0.2-0.4,0.5-0.5,0.8c-0.5,1.7-1.6,2.8-2,4.5c-0.8,3.1-1.6,6.4-2.3,9.8L0,110.6V0z"/>
<path class="st1" d="M165.2,80.6c-4.9,3.4-10.4,4.9-16.5,4.7c-0.3,0-0.6,0.1-0.9,0.3c-0.5,0.5-0.9,1-1.1,1.6
	c-0.9-1.1-0.7-2.1,0.6-2.9c0.3-0.2,0.4-0.4,0.3-0.7c-0.3-1.2-0.8-1.7-1.4-1.5l2.1-6.7c0.2-0.5,0-0.8-0.6-0.8l-2.9-0.1
	c-0.3,0-0.5,0.1-0.7,0.4c-1.8,3-4.2,5.3-7.1,6.8c-1.8,0.9-4.4,1.4-7.8,1.5c-5.5,0.1-11,0.3-16.5,0.4c-0.3,0-0.6-0.1-0.9-0.3
	c-1.3-1.3-2.2-2.6-2.6-4l0.2-3c0-0.5-0.2-0.6-0.6-0.4c-1.3,0.7-3.4,1.3-4.3-0.2c-0.2-0.2-0.1-0.3,0.2-0.2c1.3,0.7,2.6,0.6,4-0.1
	c0.6-0.3,0.8-0.7,0.4-1.3c-0.2-0.3-0.7-0.4-1-0.2c0,0,0,0,0,0c-0.7,0.6-1.5,0.7-2.3,0.4c0,0-0.1,0-0.1-0.1c0,0,0-0.1,0.1-0.1l0,0
	l1.5-0.2c1.1-0.2,2-1.2,1.9-2.3c-0.1-2.8-0.2-5.6-0.2-8.6c0-2.9,1.3-4.6,4-5c3-0.5,8.1-0.8,15.4-0.9c0.2,0,0.5-0.1,0.7-0.2
	l16.1-10.8c0.4-0.2,0.6-0.2,0.8,0.2l2.7,5.2c0.2,0.3,0.1,0.7-0.2,1l-3.1,2.4c-0.2,0.2-0.2,0.4-0.1,0.6c0.1,0.2,0.3,0.2,0.5,0.1
	c1.9-0.8,3.7-1.7,5.4-2.7c2.8-1.6,3.3-4.1,4.1-7c0-0.1,0-0.2-0.1-0.4l-0.2-0.2c-0.1-0.1-0.1-0.3,0-0.4l1-1.1c0.3-0.3,0.3-0.7,0-1
	c-0.4-0.5-0.3-0.8,0.1-1.1c0.4-0.2,0.5-0.5,0.1-0.8l-2.6-2.5c-0.3-0.3-0.3-0.8,0-1.1c0,0,0,0,0.1-0.1l3.3-2.8c0.3-0.3,0.5-0.6,0.5-1
	l-0.2-14c0-1.4-1.2-2.6-2.6-2.6c0,0,0,0-0.1,0l-3.7,0.1c-0.4,0-0.6,0.2-0.6,0.6l0,17.8c0,0.3,0.1,0.6,0.2,0.9l1.1,2.6
	c0.2,0.4,0.1,0.5-0.3,0.3c-1.8-0.9-2.7-2.2-2.7-3.8c0-6,0-11.9,0-17.8c0-0.4-0.3-0.8-0.8-0.8l0,0l-38.5,0.2c-0.5,0-0.9,0.3-1,0.8
	l-2.8,13.2c0,0.2-0.3,0.4-0.5,0.3c-0.2,0-0.3-0.1-0.3-0.3l-5.2-14c-0.1-0.3-0.3-0.4-0.6-0.4l-37.6,0.2c-0.3,0-0.5,0.2-0.5,0.5
	c0,6-0.2,12-0.5,17.9c0,1-0.4,2-1.1,2.7c-0.4,0.4-0.5,0.4-0.5-0.2l0.6-20.2c0-0.5-0.2-0.7-0.7-0.7l-5.5,0.1c-0.4,0-0.6,0.2-0.7,0.6
	l-0.8,18.5c0,0.5,0.1,0.9,0.5,1.2l3.6,3.3c0.3,0.3,0.3,0.6,0.1,0.9l-2.7,4.6c-0.2,0.3-0.2,0.6-0.1,0.9c3.6,10.6,7.6,21.1,12,31.4
	l6.3,14.7L70.9,93c-0.4-0.3-0.7-0.2-0.7,0.3l0,0.7l-2.5-6.3c-0.2-0.4-0.7-0.6-1.1-0.4c-0.3,0.1-0.5,0.4-0.5,0.6
	c-1.1,7.9-1.5,15.8-0.9,23.6c0,0.1,0,0.2-0.2,0.3c-0.2,0.3-0.4,0.2-0.4-0.1l-0.4-4.5c0-0.3-0.2-0.5-0.5-0.4c-2,0.6-3.8,1.4-5.5,2.6
	c0,0-0.1,0-0.1,0l-0.3-0.1c-0.1,0-0.1-0.1-0.1-0.2c0,0,0-0.1,0.1-0.1l5.9-3.1c0.2-0.1,0.3-0.3,0.3-0.5l0-4.7c0-0.5-0.2-0.6-0.7-0.4
	c-8,3.7-15.6,8-23.1,12.7c-0.3,0.2-0.4,0.6-0.2,0.8c0.1,0.2,0.3,0.3,0.5,0.3l45.2-0.1c0.3,0,0.5-0.2,0.5-0.5c0-0.1,0-0.2-0.1-0.3
	l-3.4-5.4c-0.1-0.2-0.1-0.3,0.1-0.3c0.1,0,0.2,0,0.3,0.1c1.2,1.7,2.4,3.4,3.6,5.2c0.1,0.2,0.1,0.4,0,0.6c-0.1,0.3,0,0.4,0.2,0.5
	l1.5,0.2c0.7,0.2,1,0.4,0.9,0.6H33.1c-0.3,0-0.4-0.1-0.2-0.4c1.9-3.5,5.2-2.8,8.4-3l17.7-9.9l4.4-2.4c0.3-0.2,0.5-0.4,0.5-0.8
	c-0.1-4.7,0.5-9.3,2-13.8c0.2-0.5-0.1-1.1-0.7-1.3c0,0-0.1,0-0.1,0L48,79.3l5.8-2.3c0.2-0.1,0.4-0.4,0.3-0.6c0-0.1-0.1-0.2-0.2-0.2
	c-1.4-0.8-3.7-1.9-6.8-3.2c-2.8-1.2-6.2-3.8-10.4-7.8c-5.7-5.4-11.3-10.9-16.8-16.3c-0.1-0.1-0.1-0.2,0-0.3c0.1-0.1,0.2-0.1,0.3-0.1
	L34.9,54c1.3,0.5,1.8,0.1,1.4-1.3c-0.3-0.9-0.8-2.1-1.8-3.5c-3-4.6-5.8-9.3-8.5-14.1c-3-5.4-3.8-12.3-5-18.4
	c-0.1-0.4,0.1-0.5,0.4-0.5l174.2,0c0.4,0,0.6,0.2,0.4,0.6c-3.5,12.3-10.2,21-19,30.6c-0.7,0.8-0.9,1.8-0.6,3
	c0.1,0.4,0.3,0.5,0.7,0.3l20-8.3c0.2-0.1,0.4,0,0.5,0.2c0.1,0.1,0,0.3-0.1,0.4c-7.5,5.9-14.8,11.7-22.1,17.3
	c-0.8,0.6-1.2,1.6-1.6,2.4c-0.3,0.7,0,1.5,0.7,1.8c0.1,0.1,0.3,0.1,0.4,0.1l4.2,0.6c0.6,0.1,0.7,0.3,0.2,0.7c-3,2.3-7.4,4.4-9.3,7.6
	C168.4,75.9,166.8,78.3,165.2,80.6z M168.7,52.6l-3.8,18.1c-0.1,0.4-0.4,0.7-0.7,0.8l-11.8,3.3c-0.3,0.1-0.6,0.3-0.7,0.6l-3.2,7.9
	c-0.1,0.3,0,0.5,0.4,0.6c6.6,0.5,14-1.4,17.7-7.2c6.8-10.8,9.8-22.7,9.1-35.8c-0.1-1.7-0.6-2.9-1.4-3.4c-2.9-1.7-5.7-3.5-8.5-5.4
	c-0.3-0.2-0.8-0.1-1,0.2c0,0-0.1,0.1-0.1,0.1l-6.9,17.8c-0.4,1.1-0.1,1.7,1.2,1.7l9.1,0c0.4,0,0.7,0.3,0.7,0.7
	C168.7,52.5,168.7,52.5,168.7,52.6z M39.8,47.7l0.1-4.9c0-0.7,0.6-1.2,1.3-1.2c0.4,0,0.7,0.2,1,0.5c3.1,3.8,6.1,7.6,9,11.4
	c1.8,2.3,2,4.1,0.9,6.7c0,0.1-0.2,0.2-0.3,0.2c-0.1,0-0.2-0.2-0.2-0.3l0,0l0.2-1.4c0.1-0.5-0.2-0.9-0.7-1c-0.3,0-0.6,0-0.8,0.2
	l-1.5,1.4c-0.3,0.2-0.3,0.6-0.2,0.9l2.7,5.9c0.2,0.4,0.5,0.5,0.9,0.4l2.5-1c0.1-0.1,0.3,0,0.3,0.1c0.1,0.1,0,0.3-0.1,0.3l-2.5,1.2
	c-0.3,0.1-0.4,0.4-0.2,0.7l1.4,2.1c0.2,0.2,0.5,0.3,0.7,0.2c0.1-0.1,0.2-0.1,0.2-0.2c0.7-1.7,1.9-2.4,3.8-2.1c0.8,0.1,1.1-0.2,0.8-1
	c-2.3-5.4-4.6-10.7-6.8-15.9c-2-4.7-6.4-12.7-11.4-14.7c-1.3-0.5-2.8,0.1-3.3,1.4c0,0,0,0.1,0,0.1c-2.2,6.1,1.1,17.4,2.9,23.5
	c0.9,3,2,5.7,5,7.2c3.6,1.8,6.8,4.1,9.5,6.9c2.8,2.9,5.1,4.1,8.6,5.2c0.3,0.1,0.6-0.1,0.7-0.4c0-0.1,0-0.3,0-0.4L61,71.6
	c-0.2-0.4-0.4-0.5-0.8-0.3l-1,0.5c-0.6,0.3-0.9,0.1-1-0.5L58,70.1c-0.1-0.6-0.6-1-1.2-0.9c-0.3,0-0.6,0.2-0.8,0.5
	c-0.4,0.7-1,1.2-1.7,1.6c-0.3,0.2-0.8,0.1-1-0.2c-2.6-3.4-4.5-7.2-5.8-11.3c-0.1-0.3,0-0.7,0.3-0.9l3.2-2.5c0.4-0.3,0.4-0.8,0.2-1.2
	l-3.6-5.1c-0.2-0.3-0.6-0.3-0.9-0.1c0,0-0.1,0.1-0.1,0.1l-2.4,2.8c-0.2,0.2-0.6,0.3-0.8,0c-0.1,0-0.1-0.1-0.1-0.2
	c-0.5-0.9-0.6-1.9-0.4-2.9c0-0.1,0.1-0.2,0.2-0.2s0.2,0.1,0.2,0.2l0.1,1.3c0,0.3,0.3,0.5,0.5,0.4c0.1,0,0.2-0.1,0.3-0.1l1.8-1.9
	c0.4-0.4,0.4-0.9,0-1.3l-4.2-5c-0.2-0.3-0.6-0.3-0.8-0.1c-0.1,0.1-0.2,0.2-0.2,0.4l-0.6,4.4c0,0.1-0.1,0.2-0.2,0.2
	S39.7,47.8,39.8,47.7L39.8,47.7z M144.5,71.7c1.9-3.8,2.4-8.2,1.6-13.4c-0.1-0.4-0.4-0.7-0.8-0.6c-0.1,0-0.2,0.1-0.4,0.4l-0.2-0.8
	c-0.1-0.4-0.3-0.6-0.7-0.5L114.6,59c-2.4,0.2-4.2,2.2-4.2,4.6l0.1,15.2c0,2.1,1.8,3.9,3.9,3.8c4,0,8.1-0.1,12.3-0.1
	c4.8-0.1,8.3-0.6,10.3-1.7C140.5,79,143,76,144.5,71.7z"/>
<path class="st0" d="M109.4,79.3l-5.1-0.3c-0.3,0-0.7,0.1-0.9,0.3c-0.5,0.6-1.2,0.8-2,0.5c-0.2-0.1-0.3-0.2-0.3-0.4
	c0-0.1,0-0.2,0.1-0.3c0.1-0.1,0-0.3-0.1-0.3c-0.1,0-0.2,0-0.3,0.1c-0.9,1.1-1.9,1.3-3.1,0.8c-0.2-0.1-0.5-0.1-0.7,0
	c-0.3,0.2-0.6,0.2-0.9,0c-0.2-0.1-0.4-0.2-0.6-0.2l-3.8-0.1c-0.3,0-0.6,0.1-0.9,0.2c-0.7,0.4-1.4,0.3-2.2-0.2
	c-0.3-0.2-0.6-0.1-0.8,0.1c-0.5,0.7-1.2,1-2.1,0.9c-0.1,0-0.1,0-0.2-0.1c-0.6-0.3-0.9-0.8-1-1.5c0-0.3-0.3-0.5-0.6-0.4
	c-0.1,0-0.2,0.1-0.3,0.1c-0.8,0.8-1.7,1-2.7,0.5c-0.4-0.2-0.7-0.3-1.1-0.2c-3.2,0.2-6.3-0.2-9.4-1c-0.3-0.1-0.5,0-0.8,0.2
	c-1.2,0.9-2.6,1.2-4.2,0.9c-4.4-10.3-8.4-20.7-12-31.4c-0.1-0.3-0.1-0.6,0.1-0.9l2.7-4.6c0.2-0.3,0.2-0.6-0.1-0.9l-3.6-3.3
	c-0.3-0.3-0.5-0.7-0.5-1.2l0.8-18.5c0-0.4,0.2-0.6,0.7-0.6l5.5-0.1c0.5,0,0.7,0.2,0.7,0.7L59,38.3c0,0.6,0.2,0.6,0.5,0.2
	c0.7-0.8,1-1.7,1.1-2.7c0.3-6,0.4-11.9,0.5-17.9c0-0.3,0.2-0.5,0.5-0.5l37.6-0.2c0.3,0,0.5,0.1,0.6,0.4l5.2,14
	c0.1,0.2,0.3,0.3,0.5,0.3c0.1-0.1,0.3-0.2,0.3-0.3l2.8-13.2c0.1-0.5,0.5-0.8,1-0.8l38.5-0.2c0.4,0,0.8,0.3,0.8,0.8c0,0,0,0,0,0
	c0,5.9,0,11.8,0,17.8c0,1.6,0.9,2.9,2.7,3.8c0.4,0.2,0.5,0.1,0.3-0.3l-1.1-2.6c-0.1-0.3-0.2-0.6-0.2-0.9l0-17.8
	c0-0.4,0.2-0.6,0.6-0.6l3.7-0.1c1.4,0,2.6,1.1,2.7,2.5c0,0,0,0,0,0.1l0.2,14c0,0.4-0.1,0.8-0.5,1l-3.3,2.8c-0.3,0.3-0.4,0.8-0.1,1.1
	c0,0,0,0,0.1,0.1l2.6,2.5c0.3,0.3,0.3,0.6-0.1,0.8c-0.5,0.2-0.5,0.6-0.1,1.1c0.3,0.4,0.3,0.7,0,1l-1,1.1c-0.1,0.1-0.1,0.2,0,0.4
	l0.2,0.2c0.1,0.1,0.1,0.2,0.1,0.4c-0.8,2.8-1.3,5.4-4.1,7c-1.8,1-3.6,1.9-5.4,2.7c-0.2,0.1-0.5,0-0.6-0.2c-0.1-0.2,0-0.4,0.1-0.5
	l3.1-2.4c0.3-0.2,0.4-0.6,0.2-1l-2.7-5.2c-0.2-0.4-0.5-0.5-0.8-0.2l-16.1,10.8c-0.2,0.1-0.4,0.2-0.7,0.2c-7.2,0.1-12.3,0.4-15.4,0.9
	c-2.7,0.4-4.1,2.1-4,5c0,3,0.1,5.8,0.2,8.6c0.1,1.2-0.8,2.2-1.9,2.3l-1.5,0.2c0,0-0.1,0-0.1,0.1c0,0,0,0.1,0.1,0.1l0,0
	c0.8,0.3,1.6,0.1,2.3-0.4c0.3-0.2,0.7-0.2,1,0.1c0,0,0,0,0,0c0.4,0.5,0.2,1-0.4,1.3c-1.4,0.7-2.7,0.7-4,0.1
	c-0.3-0.1-0.3-0.1-0.2,0.2c0.9,1.4,2.9,0.9,4.3,0.2c0.4-0.2,0.6-0.1,0.6,0.4L109.4,79.3z M106.5,38.2c0-0.1-0.1-0.3-0.3-0.3l0,0h0
	c-0.1,0-0.3,0.1-0.3,0.3l0,16.8c0,0.1,0.1,0.3,0.3,0.3l0,0h0c0.1,0,0.3-0.1,0.3-0.3L106.5,38.2z M121.9,46.1c1.7-1.2,2.7-2,3-2.4
	c2-2.6,1.7-2.8-0.8-0.7c-4.5,3.9-8.5,8.2-12,13.1c-0.1,0.1,0,0.3,0.1,0.3c0.1,0.1,0.2,0.1,0.3,0l2.7-3c0.2-0.3,0.5-0.4,0.8-0.4
	l0.6,0c0.4,0,0.6-0.1,0.8-0.5c1.2-1.9,2.7-3.5,4.6-4.7c0.3-0.2,0.3-0.4,0.1-0.7C121.5,46.8,121.5,46.4,121.9,46.1z M91.2,44.8
	c-0.4-0.3-0.7-0.5-0.9-0.4c-0.2,0.1-0.2,0.2-0.1,0.4c3.5,3.2,6.5,6.8,9.2,10.7c0.1,0.2,0.2,0.2,0.3-0.1c0-0.2,0-0.3-0.1-0.6
	C97.4,50.8,94.6,47.4,91.2,44.8z M54.7,46.7c-0.3,0.2-0.6,0.5-0.8,0.9c-0.1,0.1,0,0.3,0.1,0.3c0.1,0.1,0.2,0,0.3,0l2.1-1.9
	c0.4-0.4,0.3-0.4-0.2-0.3c-0.3,0.1-0.5,0.2-0.7,0.4C55.4,46.2,55.1,46.4,54.7,46.7z M61.1,45.6l-0.4-0.1c-0.1,0-0.2,0-0.2,0.1
	c0,0,0,0,0,0l0,0.1c-0.8,4.2-1.4,7.7-1.3,7.7c0,0,0,0,0,0l0.2,0c0.1,0,0.9-3.4,1.7-7.6c0,0,0,0,0,0l0-0.1
	C61.2,45.7,61.1,45.7,61.1,45.6z M67.7,54.6l16.9,10c0.3,0.2,0.5,0.6,0.5,1c-0.1,1.3,0.5,2.4,1.7,3.1c0.3,0.2,0.6,0.1,0.8-0.1
	l0.9-0.8c0.3-0.2,0.7-0.3,0.9-0.1l6.2,3.9c0.3,0.2,0.6,0.3,0.9,0.4c1.6,0.3,3.2,0.8,4.7,1.4c0.5,0.2,1,0,1.2-0.5
	c0.1-0.1,0.1-0.3,0.1-0.4l0-0.5c0-0.3,0.1-0.7,0.3-0.9c1.4-1.9,2-4.1,1.7-6.5c0-0.3-0.1-0.3-0.2,0l-1.3,4.9
	c-0.1,0.4-0.3,0.7-0.7,0.8c-1.3,0.6-2.5,0.5-3.4-0.2C93,65.3,86.2,59.2,78.7,51.8c-3.5-3.4-8.2-5.4-14.1-6c-0.3,0-0.6,0.1-0.7,0.4
	l-2.8,7c-0.1,0.3,0,0.6,0.3,0.7c0.1,0,0.2,0,0.2,0l3-0.3c0.5,0,0.9,0.3,0.9,0.7c1.1,5.4,3.2,10.4,6.2,14.9c0.2,0.3,0.4,0.4,0.8,0.5
	c6.5,0.6,13.6,1.9,21.4,4c0.8,0.2,1.4-0.1,1.6-0.9c0.1-0.4,0-0.5-0.4-0.3c-0.8,0.5-1.1,0.6-2.1,0.3c-6.6-1.9-13.3-3.2-20.2-4
	c-0.4,0-0.6-0.2-0.8-0.5c-2.4-4.1-4.2-8.3-5.6-12.9C66.2,54.2,66.6,53.9,67.7,54.6z M151.3,51c0.1-0.6,0-1.2-0.2-1.8
	c-0.1-0.2-0.4-0.3-0.6-0.2c-0.2,0.1-0.3,0.3-0.2,0.5l0.5,1.5C151,51.8,151.2,51.8,151.3,51z M106.2,71.6c0.1,0,0.2-0.9,0.2-2.1
	c0,0,0,0,0,0c0-1.2,0-2.1-0.1-2.1c0,0,0,0,0,0c-0.1,0-0.2,0.9-0.2,2.1c0,0,0,0,0,0C106,70.6,106.1,71.6,106.2,71.6
	C106.2,71.6,106.2,71.6,106.2,71.6z M80,74.8c-1,0.1-2.1,0.3-3.1,0.6c-0.7,0.2-0.7,0.4,0,0.4c1.3,0.1,2.5-0.2,3.5-1
	c0.3-0.2,0.3-0.3-0.1-0.2C80.2,74.7,80.1,74.8,80,74.8z M73.4,75.6c-1.5-0.9-2.8-0.8-3.9,0.3c-0.5,0.5-0.4,0.6,0.3,0.5
	c1.8-0.4,3.6-0.3,5.3,0.3c0.4,0.1,0.7,0.1,0.9-0.1c0.4-0.4,0.3-0.6-0.3-0.6C74.7,76.1,73.9,76,73.4,75.6z M80.7,76.2
	c-1.4,0.6-2.2,0.7-3.6,0.8c-0.3,0-0.3,0.1-0.1,0.3c1.8,1.2,5.6-1.7,7.9,0.2c0.3,0.2,0.6,0.3,0.9,0.3c4,0.1,8,0.1,12.1-0.1
	c0.7,0,1.4-0.6,1.7-1.2c0.2-0.4,0.1-0.6-0.3-0.5c-4.1,0.7-8.2,0.9-12.3,0.6c-0.2,0-1.2-0.3-3-0.8C82.9,75.6,81.8,75.7,80.7,76.2z"/>
<path class="st0" d="M168,51.7l-9.1,0c-1.2,0-1.6-0.6-1.2-1.7l6.9-17.8c0.1-0.4,0.5-0.5,0.9-0.4c0,0,0.1,0,0.1,0.1
	c2.8,1.8,5.6,3.6,8.5,5.4c0.9,0.5,1.3,1.6,1.4,3.4c0.8,13.1-2.2,25-9.1,35.8c-3.7,5.9-11.1,7.8-17.7,7.2c-0.4,0-0.5-0.2-0.4-0.6
	l3.2-7.9c0.1-0.3,0.4-0.6,0.7-0.6l11.8-3.3c0.4-0.1,0.6-0.4,0.7-0.8l3.8-18.1c0.1-0.4-0.2-0.8-0.5-0.8
	C168.1,51.7,168.1,51.7,168,51.7z M173,47.7c0-0.7,0.2-1.4,0.8-1.9c0.1-0.1,0.2-0.3,0-0.5c-0.1-0.1-0.1-0.2-0.2-0.2
	c-0.2-0.3-0.6-0.3-0.9-0.1c-0.1,0.1-0.2,0.2-0.2,0.4c-1.8,10.6-4.8,20.9-8.9,30.9c-0.1,0.2,0,0.5,0.2,0.6c0.2,0.1,0.4,0,0.5-0.1
	c0.4-0.4,0.8-0.9,1.2-1.7c4.3-8.1,7.2-16.7,8.8-25.7c0.1-0.3-0.1-0.5-0.4-0.6c-0.2-0.1-0.4-0.1-0.5-0.2
	C173.2,48.3,173,48.1,173,47.7z"/>
<path class="st0" d="M40.2,47.8l0.6-4.4c0-0.3,0.3-0.6,0.7-0.5c0.1,0,0.3,0.1,0.4,0.2l4.2,5c0.3,0.4,0.3,1,0,1.3l-1.8,1.9
	c-0.2,0.2-0.5,0.2-0.7,0c-0.1-0.1-0.1-0.2-0.1-0.3l-0.1-1.3c0-0.1-0.1-0.2-0.2-0.2s-0.2,0.1-0.2,0.2c-0.2,1,0,2,0.4,2.9
	c0.2,0.3,0.5,0.4,0.8,0.2c0.1,0,0.1-0.1,0.2-0.1l2.4-2.8c0.2-0.3,0.6-0.3,0.9-0.1c0,0,0.1,0.1,0.1,0.1l3.6,5.1
	c0.3,0.4,0.2,0.9-0.2,1.2l-3.2,2.5c-0.3,0.2-0.4,0.6-0.3,0.9c1.2,4.1,3.1,7.9,5.8,11.3c0.2,0.3,0.6,0.4,1,0.2
	c0.7-0.4,1.3-0.9,1.7-1.6c0.3-0.5,0.9-0.7,1.4-0.3c0.3,0.2,0.5,0.5,0.5,0.8l0.1,1.1c0.1,0.7,0.4,0.8,1,0.5l1-0.5
	c0.4-0.2,0.7-0.1,0.8,0.3l3.2,8.2c0.1,0.3,0,0.6-0.3,0.7c-0.1,0-0.3,0.1-0.4,0c-3.5-1.1-5.8-2.4-8.6-5.2c-2.8-2.8-5.9-5.2-9.5-6.9
	c-3-1.5-4.1-4.2-5-7.2c-1.8-6.1-5.1-17.5-2.9-23.5c0.5-1.3,1.9-2,3.3-1.5c0,0,0.1,0,0.1,0c5,2,9.3,10,11.4,14.7
	c2.3,5.2,4.5,10.5,6.8,15.9c0.3,0.8,0.1,1.1-0.8,1c-1.8-0.3-3.1,0.4-3.8,2.1c-0.1,0.3-0.4,0.4-0.7,0.3c-0.1,0-0.2-0.1-0.2-0.2
	l-1.4-2.1c-0.2-0.3-0.1-0.5,0.2-0.7l2.5-1.2c0.1-0.1,0.2-0.2,0.1-0.3c-0.1-0.1-0.2-0.2-0.3-0.1l-2.5,1c-0.4,0.2-0.7,0-0.9-0.4
	l-2.7-5.9c-0.1-0.3-0.1-0.7,0.2-0.9l1.5-1.4c0.3-0.3,0.9-0.3,1.2,0c0.2,0.2,0.3,0.5,0.2,0.8L51.5,60c0,0.1,0,0.3,0.2,0.3
	c0.1,0,0.3,0,0.3-0.2l0,0c1.1-2.6,0.8-4.4-0.9-6.7c-3-3.8-6-7.6-9-11.4c-0.4-0.5-1.2-0.6-1.7-0.2c-0.3,0.2-0.5,0.6-0.5,1l-0.1,4.9
	c0,0.1,0.1,0.2,0.2,0.2S40.2,47.9,40.2,47.8z"/>
<path class="st1" d="M106.5,55.1c0,0.1-0.1,0.3-0.3,0.3h0c-0.1,0-0.3-0.1-0.3-0.3l0,0l0-16.8c0-0.1,0.1-0.3,0.3-0.3h0
	c0.1,0,0.3,0.1,0.3,0.3l0,0L106.5,55.1z"/>
<path class="st1" d="M121.9,46.1c-0.4,0.3-0.4,0.6,0.1,1.1c0.3,0.3,0.2,0.5-0.1,0.7c-1.9,1.2-3.4,2.8-4.6,4.7
	c-0.2,0.3-0.5,0.5-0.8,0.5l-0.6,0c-0.3,0-0.6,0.1-0.8,0.4l-2.7,3c-0.1,0.1-0.3,0.1-0.4,0c-0.1-0.1-0.1-0.2,0-0.3
	c3.5-4.8,7.5-9.2,12-13.1c2.5-2.2,2.8-1.9,0.8,0.7C124.5,44.1,123.5,44.9,121.9,46.1z"/>
<path class="st1" d="M91.2,44.8c3.4,2.7,6.2,6,8.4,10.1c0.1,0.2,0.2,0.4,0.1,0.6c-0.1,0.2-0.2,0.3-0.3,0.1
	c-2.6-3.9-5.7-7.5-9.2-10.7c-0.2-0.1-0.1-0.3,0.1-0.4C90.5,44.3,90.8,44.4,91.2,44.8z"/>
<path class="st1" d="M173.4,48.5c0.2,0.1,0.3,0.2,0.5,0.2c0.3,0.1,0.4,0.3,0.4,0.6c-1.6,9-4.5,17.6-8.8,25.7
	c-0.4,0.7-0.8,1.3-1.2,1.7c-0.2,0.2-0.5,0.2-0.6,0c-0.1-0.1-0.2-0.3-0.1-0.5c4.1-10,7.1-20.3,8.9-30.9c0.1-0.3,0.4-0.6,0.7-0.5
	c0.1,0,0.3,0.1,0.4,0.2c0.1,0.1,0.1,0.2,0.2,0.2c0.1,0.2,0.1,0.3,0,0.5c-0.5,0.6-0.8,1.2-0.8,1.9C173,48.1,173.2,48.3,173.4,48.5z"
	/>
<path class="st1" d="M55.5,46.1c0.2-0.2,0.4-0.3,0.7-0.4c0.5-0.2,0.6-0.1,0.2,0.3l-2.1,1.9c-0.1,0.1-0.2,0.1-0.3,0
	c-0.1-0.1-0.1-0.2,0-0.3c0.2-0.4,0.5-0.7,0.8-0.9C55.1,46.4,55.4,46.2,55.5,46.1z"/>
<path class="st1" d="M61.1,45.6c0.1,0,0.1,0.1,0.1,0.2l0,0.1c-0.8,4.2-1.6,7.6-1.7,7.6c0,0,0,0,0,0l-0.2,0c-0.2,0.1,0.4-3.2,1.2-7.5
	c0-0.1,0-0.2,0-0.2l0-0.1c0-0.1,0.1-0.1,0.2-0.1c0,0,0,0,0,0L61.1,45.6z"/>
<path class="st1" d="M67.7,54.6c-1.1-0.7-1.5-0.4-1.2,0.9c1.3,4.5,3.2,8.8,5.6,12.9c0.2,0.3,0.4,0.5,0.8,0.5
	c6.9,0.8,13.6,2.2,20.2,4c1,0.3,1.3,0.3,2.1-0.3c0.4-0.2,0.5-0.1,0.4,0.3c-0.2,0.8-0.8,1.1-1.6,0.9c-7.8-2.1-14.9-3.4-21.4-4
	c-0.3,0-0.6-0.2-0.8-0.5c-3.1-4.5-5.1-9.5-6.2-14.9c-0.1-0.4-0.5-0.7-0.9-0.7l-3,0.3c-0.3,0-0.5-0.2-0.6-0.5c0-0.1,0-0.2,0-0.2
	l2.8-7c0.1-0.3,0.3-0.4,0.7-0.4c5.9,0.6,10.6,2.5,14.1,6c7.6,7.4,14.3,13.5,20.2,18.1c1,0.8,2.1,0.8,3.4,0.2
	c0.4-0.2,0.6-0.4,0.7-0.8l1.3-4.9c0.1-0.3,0.1-0.3,0.2,0c0.3,2.4-0.3,4.6-1.7,6.5c-0.2,0.3-0.3,0.6-0.3,0.9l0,0.5
	c0,0.5-0.3,0.9-0.8,1c-0.1,0-0.3,0-0.4-0.1c-1.5-0.6-3.1-1.1-4.7-1.4c-0.3-0.1-0.7-0.2-0.9-0.4l-6.2-3.9c-0.3-0.2-0.7-0.2-0.9,0.1
	l-0.9,0.8c-0.2,0.2-0.6,0.2-0.8,0.1c-1.2-0.7-1.7-1.7-1.7-3.1c0-0.4-0.2-0.8-0.5-1L67.7,54.6z"/>
<path class="st1" d="M151.3,51c-0.1,0.9-0.3,0.9-0.6,0.1l-0.5-1.5c-0.1-0.3,0.1-0.5,0.3-0.6c0.2-0.1,0.4,0,0.5,0.2
	C151.3,49.8,151.4,50.3,151.3,51z"/>
<path class="st0" d="M144.9,58.1l-0.4,13.6c-1.5,4.3-4,7.4-7.5,9.2c-2.1,1.1-5.5,1.6-10.3,1.7c-4.2,0.1-8.3,0.1-12.3,0.1
	c-2.1,0-3.9-1.7-3.9-3.8l-0.1-15.2c0-2.4,1.8-4.4,4.2-4.6l29.4-2.3c0.4,0,0.6,0.2,0.7,0.5L144.9,58.1z"/>
<path class="st1" d="M144.5,71.7l0.4-13.6c0.2-0.3,0.3-0.4,0.4-0.4c0.4,0,0.7,0.2,0.8,0.6C147,63.4,146.4,67.9,144.5,71.7z"/>
<path class="st1" d="M106.2,71.6c-0.1,0-0.2-1-0.1-2.1c0,0,0,0,0,0c0-1.2,0.1-2.1,0.2-2.1c0,0,0,0,0,0c0.1,0,0.2,1,0.1,2.1
	c0,0,0,0,0,0C106.4,70.6,106.3,71.6,106.2,71.6C106.2,71.6,106.2,71.6,106.2,71.6z"/>
<path class="st1" d="M110.1,88.3l-1.5-2c-0.1-0.1-0.1-0.2-0.1-0.3l-0.2-4.3c0-0.2,0-0.2,0.2-0.1l4.3,5.9c0.5,0.7,0.4,1.7-0.2,2.3
	c-2,2-5.6,4.2-8.1,1.6c-0.2-0.2-0.2-0.6,0.1-0.8c0.2-0.2,0.5-0.2,0.7,0c1.9,1.5,3.5,1.1,4.9-1.3C110.4,89,110.4,88.6,110.1,88.3z"/>
<path class="st1" d="M146.2,82.2c0.7-0.2,1.2,0.3,1.4,1.5c0.1,0.3,0,0.6-0.3,0.7c-1.4,0.8-1.6,1.8-0.6,2.9l0.8,7.4
	c0,0.3,0.2,0.6,0.5,0.7l4.9,3c5.5,3.8,10.2,8.4,14,13.7c0.2,0.3,0.5,0.4,0.8,0.3l2.5-0.9c0.1-0.1,0.3,0,0.4,0c0.4,0.2,0.8,0.5,1,0.8
	c0.2,0.3,0.5,0.4,0.9,0.4c2.9,0.1,5.7,0,8.6-0.2c0.8-0.1,1.5,0.2,2.1,0.7l0.5,0.7c0.2,0.2,0.1,0.5-0.1,0.7c-0.1,0.1-0.2,0.1-0.3,0.1
	l-93.9,0c0.1-0.3-0.2-0.5-0.9-0.6l4.2-0.3c0.3,0,0.4-0.1,0.1-0.4c-6.8-5.5-13.5-11-20.3-16.4c-0.5-0.4-1.3-1.4-2.4-3l0-0.7
	c0-0.5,0.3-0.6,0.7-0.3l0.7,0.5c0.9,1.2,1.8,2.2,2.9,3c5.8,4.6,11.7,9.1,17.6,13.6l4.7,3.6c0.2,0.2,0.5,0.2,0.7,0.2l19.4-0.1
	c0.3,0,0.5-0.1,0.7-0.3l7.3-7c5.5-5,10.9-10,16.1-15C142.7,90,144.4,86.9,146.2,82.2z M148.2,105.1c-0.1,0.6-0.2,1-0.4,1
	c-0.3,0.5-0.5,1-0.6,1.6c0,0.3-0.1,0.3-0.3,0.1c-0.3-0.4-0.4-0.8-0.4-1.2c-0.1-6.3-0.4-12.6-0.9-18.9c0-0.2-0.2-0.3-0.4-0.3
	c-0.1,0-0.2,0.1-0.3,0.1c-1.8,2.7-3.5,5.2-5.6,7.6c-5.6,6.1-11.2,12.2-16.8,18.2c-0.2,0.2-0.2,0.5,0,0.7c0.1,0.1,0.2,0.1,0.3,0.1
	l43.6-0.1c0.1,0,0.2-0.1,0.2-0.2c0,0,0-0.1,0-0.1c-5.3-6.5-11.5-12.1-18.5-16.7c-0.4-0.2-0.5-0.1-0.5,0.3L148.2,105.1z"/>
<path class="st1" d="M122.1,88.6l-2.3-0.9c-0.1,0-0.1-0.1-0.1-0.2c0,0,0.1-0.1,0.1-0.1c1.1-0.1,3.2,0.3,3,1.9c0,0.2-0.1,0.3-0.3,0.1
	c-0.1-0.1-0.2-0.2-0.2-0.4C122.3,88.7,122.2,88.6,122.1,88.6z"/>
<path class="st1" d="M102.6,96.4c5.8-0.7,11-2.6,15.5-5.6c0.3-0.2,0.5-0.3,0.7-0.3c0.1,0,0.3,0,0.4,0c0.3,0,0.3,0.1,0.1,0.3
	c-4.8,3.4-14.6,7.8-20.6,6c-0.7-0.2-1.1-0.6-1.3-1.2c-0.1-0.3,0-0.4,0.2-0.2C99.1,96.3,100.7,96.6,102.6,96.4z"/>
<path class="st1" d="M93.8,95.8c0,0.1-0.1,0.3-0.2,0.3c-0.1,0-0.3-0.1-0.3-0.2c-0.3-1.3,0.1-2.4,1.2-3.2c0.2-0.1,0.3-0.2,0.5-0.2
	c0.2,0,0.2,0.1,0.1,0.2C94.2,93.4,93.7,94.5,93.8,95.8z"/>
<path class="st1" d="M104,102.3c1.6-1.3,7.7-3.4,10-2.1c0.2,0.1,0.3,0.4,0.2,0.6c-0.1,0.1-0.2,0.2-0.4,0.2c-3.3,0.1-6.4,0.7-9.5,1.8
	c-0.2,0-0.3,0-0.4-0.2C103.9,102.5,103.9,102.3,104,102.3z"/>
<path class="st1" d="M148.2,105.1c1.9,1.6,3.5,3.4,4.7,5.4c0.1,0.1,0.1,0.2,0,0.3c-0.1,0.1-0.2,0.2-0.4,0.1c0,0,0,0-0.1,0l-4.7-4.7
	C148,106.1,148.2,105.8,148.2,105.1z"/>
<path class="st1" d="M126.1,113.3l2.8-3.8c0.1-0.1,0.2-0.1,0.3-0.1c0.1,0.1,0.1,0.2,0.1,0.2c-0.5,1.7-1.4,3-2.9,3.9
	c-0.1,0.1-0.2,0-0.3-0.1C126,113.5,126,113.4,126.1,113.3z"/>
<path class="st1" d="M134.4,111.7c0,0.9-0.7,1.4-1.9,1.8c-0.1,0-0.3,0-0.3-0.2c0-0.1,0-0.2,0.1-0.2l1.8-1.5
	C134.3,111.3,134.4,111.4,134.4,111.7z"/>
<path class="st1" d="M154.9,111.6C154.9,111.6,154.9,111.6,154.9,111.6C154.9,111.6,154.9,111.6,154.9,111.6
	C154.9,111.6,154.9,111.6,154.9,111.6C154.9,111.6,154.9,111.6,154.9,111.6c0.9,0,1.6,0.5,2.1,1.3c0,0.1,0,0.2-0.1,0.2
	c-0.1,0-0.1,0-0.2,0C156.1,112.7,155.6,112.2,154.9,111.6C155,111.6,155,111.6,154.9,111.6z"/>
<path class="st0" d="M208.6,129h-6.2H208.6z"/>
<text transform="matrix(1 0 0 1 114.7488 68.9009)"><tspan x="0" y="0" class="st1 st2 st3">ERROR</tspan><tspan x="0" y="10.6" class="st1 st2 st3">404</tspan></text>
<text transform="matrix(1 0 0 1 66.5742 130.9562)"><tspan x="0" y="0" class="st1 st2 st4">AQUÍ NO HAY</tspan><tspan x="-0.2" y="17.2" class="st1 st2 st5">NADA QUE VER</tspan></text>
<text transform="matrix(1 0 0 1 66.6084 171.8634)" class="st6 st2 st7">INSECTO</text>
</svg>
